<?xml version="1.0" encoding="UTF-8"?>
<svg version="1.1" xmlns="http://www.w3.org/2000/svg" width="180" height="180">
<path d="M0 0 C59.4 0 118.8 0 180 0 C180 59.4 180 118.8 180 180 C120.6 180 61.2 180 0 180 C0 120.6 0 61.2 0 0 Z " fill="#FEFEFE" transform="translate(0,0)"/>
<path d="M0 0 C5.38073593 3.22844156 9.43934074 7.24275821 11.2265625 13.3359375 C11.58057136 16.46474026 11.64214259 19.56421331 11.6640625 22.7109375 C11.69693359 23.5359375 11.72980469 24.3609375 11.76367188 25.2109375 C11.81867855 31.51170224 10.30914188 34.55035472 6.2265625 39.3359375 C4.9065625 37.6859375 3.5865625 36.0359375 2.2265625 34.3359375 C2.3709375 35.6146875 2.5153125 36.8934375 2.6640625 38.2109375 C2.74527344 38.93023437 2.82648438 39.64953125 2.91015625 40.390625 C3.13949211 42.40998066 3.13949211 42.40998066 4.2265625 44.3359375 C5.2165625 44.3359375 6.2065625 44.3359375 7.2265625 44.3359375 C9.38999261 42.30325148 9.38999261 42.30325148 11.2265625 39.3359375 C11.60361168 43.86052766 11.60361168 43.86052766 9.7890625 46.1484375 C7.43894587 49.43860079 7.48955409 52.32531575 7.2265625 56.3359375 C7.5565625 56.6659375 7.8865625 56.9959375 8.2265625 57.3359375 C9.2165625 55.0259375 10.2065625 52.7159375 11.2265625 50.3359375 C13.47113139 53.70279084 15.04517248 57.18556679 16.71484375 60.86328125 C18.55490558 63.87299479 20.23483077 65.46129015 23.2265625 67.3359375 C30.19751746 68.45658469 37.16968598 68.07315918 43.2265625 64.3359375 C46.55875783 61.00374217 47.96735813 57.84808648 49.2265625 53.3359375 C50.8765625 53.9959375 52.5265625 54.6559375 54.2265625 55.3359375 C53.5665625 53.0259375 52.9065625 50.7159375 52.2265625 48.3359375 C52.8865625 48.3359375 53.5465625 48.3359375 54.2265625 48.3359375 C53.87946089 44.78004628 53.87946089 44.78004628 51.7421875 42.13671875 C49.10717451 39.00594301 49.42502048 34.73934922 49.14257812 30.78515625 C48.83899544 27.67573361 48.60105186 25.75046135 46.47265625 23.39453125 C43.88758585 22.17617633 42.0794875 21.90278647 39.2265625 21.8984375 C38.3809375 21.87910156 37.5353125 21.85976562 36.6640625 21.83984375 C33.37585114 22.50907907 32.3183783 23.74080315 30.2265625 26.3359375 C29.63631532 29.09532042 29.63631532 29.09532042 29.72265625 32.1328125 C29.70396484 33.256875 29.68527344 34.3809375 29.66601562 35.5390625 C29.66504883 37.29476562 29.66504883 37.29476562 29.6640625 39.0859375 C29.62796282 48.32745489 29.48639198 55.44619328 24.2265625 63.3359375 C22.3515625 63.0234375 22.3515625 63.0234375 20.2265625 62.3359375 C17.76098633 58.63757324 17.99423108 55.89992449 18.109375 51.6328125 C18.12491425 50.87679749 18.14045349 50.12078247 18.15646362 49.34185791 C18.19326492 47.74127992 18.23565371 46.14082209 18.28320312 44.54052734 C18.35092062 42.10898553 18.38733357 39.67830374 18.421875 37.24609375 C18.46161976 35.68744981 18.50322763 34.12885204 18.546875 32.5703125 C18.55437775 31.85027039 18.56188049 31.13022827 18.5696106 30.3883667 C18.77290752 25.02505136 20.22348055 21.79325811 23.2265625 17.3359375 C25.26171875 15.59375 25.26171875 15.59375 27.2890625 14.4609375 C28.29646484 13.87699219 28.29646484 13.87699219 29.32421875 13.28125 C34.21707408 10.84989273 38.87539932 10.6642118 44.2265625 11.3359375 C50.99949344 13.66443444 55.95724495 16.79730239 59.2265625 23.3359375 C59.29690019 25.20973355 59.3108647 27.08594852 59.2890625 28.9609375 C59.28003906 29.96382812 59.27101563 30.96671875 59.26171875 32 C59.25011719 32.77085938 59.23851562 33.54171875 59.2265625 34.3359375 C58.5665625 33.3459375 57.9065625 32.3559375 57.2265625 31.3359375 C56.5665625 31.3359375 55.9065625 31.3359375 55.2265625 31.3359375 C54.7315625 32.3259375 54.7315625 32.3259375 54.2265625 33.3359375 C54.2265625 32.6759375 54.2265625 32.0159375 54.2265625 31.3359375 C53.5665625 31.3359375 52.9065625 31.3359375 52.2265625 31.3359375 C52.7215625 33.3159375 52.7215625 33.3159375 53.2265625 35.3359375 C52.5665625 35.3359375 51.9065625 35.3359375 51.2265625 35.3359375 C51.57442958 37.31130495 51.57442958 37.31130495 52.2265625 39.3359375 C52.8865625 39.6659375 53.5465625 39.9959375 54.2265625 40.3359375 C54.2265625 38.6859375 54.2265625 37.0359375 54.2265625 35.3359375 C54.8865625 35.3359375 55.5465625 35.3359375 56.2265625 35.3359375 C55.8965625 37.3159375 55.5665625 39.2959375 55.2265625 41.3359375 C55.8865625 41.6659375 56.5465625 41.9959375 57.2265625 42.3359375 C56.2365625 45.3059375 56.2365625 45.3059375 55.2265625 48.3359375 C55.8865625 48.6659375 56.5465625 48.9959375 57.2265625 49.3359375 C56.8965625 51.3159375 56.5665625 53.2959375 56.2265625 55.3359375 C57.2165625 55.0059375 58.2065625 54.6759375 59.2265625 54.3359375 C58.7481375 59.35940002 57.44670827 62.43786631 54.2265625 66.3359375 C44.49833062 73.56127477 32.81611502 73.33638642 21.2265625 72.3359375 C14.80978654 70.93934509 9.79329109 68.0168343 5.2265625 63.3359375 C3.8515625 60.5234375 3.8515625 60.5234375 3.2265625 58.3359375 C3.5565625 58.3359375 3.8865625 58.3359375 4.2265625 58.3359375 C4.36343964 56.79683014 4.45940255 55.25406455 4.5390625 53.7109375 C4.62607422 52.42316406 4.62607422 52.42316406 4.71484375 51.109375 C4.45981878 48.09190344 4.45981878 48.09190344 1.73828125 45.8828125 C-2.59026969 41.12102307 -1.35323023 34.2444957 -1.2734375 28.2109375 C-1.24027053 25.68769647 -1.22889233 23.16404898 -1.2421875 20.640625 C-1.22607422 19.52671387 -1.20996094 18.41280273 -1.19335938 17.26513672 C-1.52754082 14.14606339 -1.52754082 14.14606339 -4.11914062 12.00439453 C-9.08878209 8.88054153 -14.03823169 8.51662238 -19.7734375 9.3359375 C-22.89808936 11.0107509 -25.16597942 13.12102135 -26.7734375 16.3359375 C-28.5831006 41.07369266 -28.5831006 41.07369266 -19.7734375 63.3359375 C-11.88148362 70.15027519 -1.48719265 68.81210197 8.2265625 68.3359375 C8.5565625 69.3259375 8.8865625 70.3159375 9.2265625 71.3359375 C-1.48603546 74.90680349 -16.83232059 73.2205497 -26.7734375 68.3359375 C-31.85631998 65.00382565 -35.88562237 61.2214788 -37.7734375 55.3359375 C-38.87315336 46.82203628 -39.0470989 38.20080949 -39.12353516 29.62548828 C-39.14022625 28.25845472 -39.16768594 26.8915129 -39.20556641 25.52490234 C-39.58122911 11.79524704 -39.58122911 11.79524704 -35.18969727 5.83056641 C-25.96268405 -3.90702623 -12.0501236 -5.53442159 0 0 Z " fill="#0D4798" transform="translate(81.7734375,70.6640625)"/>
<path d="M0 0 C3.46077556 2.03281592 5.66682564 4.11409883 8.16796875 7.2734375 C8.16796875 8.5934375 8.16796875 9.9134375 8.16796875 11.2734375 C6.84796875 11.2734375 5.52796875 11.2734375 4.16796875 11.2734375 C4.16796875 12.9234375 4.16796875 14.5734375 4.16796875 16.2734375 C3.50796875 16.2734375 2.84796875 16.2734375 2.16796875 16.2734375 C2.66296875 20.2334375 2.66296875 20.2334375 3.16796875 24.2734375 C2.50796875 24.2734375 1.84796875 24.2734375 1.16796875 24.2734375 C1.16796875 25.9234375 1.16796875 27.5734375 1.16796875 29.2734375 C0.83796875 29.2734375 0.50796875 29.2734375 0.16796875 29.2734375 C0.11189453 28.06107422 0.11189453 28.06107422 0.0546875 26.82421875 C-0.01105469 25.75558594 -0.07679687 24.68695313 -0.14453125 23.5859375 C-0.20253906 22.53019531 -0.26054688 21.47445312 -0.3203125 20.38671875 C-0.87813075 16.99296957 -1.81711429 15.03786463 -3.83203125 12.2734375 C-8.17555144 9.20119151 -12.23047439 8.702807 -17.421875 8.84375 C-21.39181461 9.55151881 -23.11786051 11.35048439 -25.83203125 14.2734375 C-30.8132161 24.23580719 -27.14724837 43.68430835 -24.87890625 54.3203125 C-23.06484177 59.43759888 -20.5272412 63.50509656 -15.70703125 66.1484375 C-8.25838488 69.65962171 0.14407344 68.6667657 8.16796875 68.2734375 C8.49796875 69.2634375 8.82796875 70.2534375 9.16796875 71.2734375 C-1.54462921 74.84430349 -16.89091434 73.1580497 -26.83203125 68.2734375 C-31.91491373 64.94132565 -35.94421612 61.1589788 -37.83203125 55.2734375 C-38.93174711 46.75953628 -39.10569265 38.13830949 -39.18212891 29.56298828 C-39.19882 28.19595472 -39.22627969 26.8290129 -39.26416016 25.46240234 C-39.63982286 11.73274704 -39.63982286 11.73274704 -35.24829102 5.76806641 C-25.97293068 -4.02054865 -12.08707406 -5.56044843 0 0 Z " fill="#084595" transform="translate(81.83203125,70.7265625)"/>
<path d="M0 0 C3.77702297 2.63513231 6.60374735 5.7074947 8.6875 9.875 C9.45269013 16.62372608 8.85551203 22.35588926 4.6875 27.875 C-0.10560347 31.68991909 -4.01750065 33.24698528 -10.1875 33.15625 C-14.98515576 32.52126615 -18.329953 29.91065765 -21.625 26.4375 C-25.10785698 21.14871717 -25.66061337 17.55574202 -24.84375 11.30859375 C-23.7250761 6.1840802 -21.27559289 3.60695059 -17.1875 0.5 C-11.65845302 -2.34181124 -5.75561772 -1.95473809 0 0 Z " fill="#04B905" transform="translate(75.3125,30.125)"/>
<path d="M0 0 C3.96132683 3.96132683 3.28717262 8.98834171 3.375 14.25 C3.41238281 15.08402344 3.44976562 15.91804688 3.48828125 16.77734375 C3.57815054 23.13809211 2.13565227 26.17289798 -2 31 C-3.32 29.35 -4.64 27.7 -6 26 C-5.855625 27.27875 -5.71125 28.5575 -5.5625 29.875 C-5.48128906 30.59429687 -5.40007812 31.31359375 -5.31640625 32.0546875 C-5.08707039 34.07404316 -5.08707039 34.07404316 -4 36 C-3.01 36 -2.02 36 -1 36 C1.16343011 33.96731398 1.16343011 33.96731398 3 31 C3.37704918 35.52459016 3.37704918 35.52459016 1.5625 37.8125 C-0.78761663 41.10266329 -0.73700841 43.98937825 -1 48 C-0.67 48.33 -0.34 48.66 0 49 C0.99 46.69 1.98 44.38 3 42 C5.24456889 45.36685334 6.81860998 48.84962929 8.48828125 52.52734375 C10.32834308 55.53705729 12.00826827 57.12535265 15 59 C21.97095496 60.12064719 28.94312348 59.73722168 35 56 C38.33219533 52.66780467 39.74079563 49.51214898 41 45 C42.65 45.66 44.3 46.32 46 47 C45.34 44.69 44.68 42.38 44 40 C44.66 40 45.32 40 46 40 C45.56733345 36.35070371 45.56733345 36.35070371 43.4375 33.5 C42 32 42 32 41.8125 29.3125 C41.9053125 28.1678125 41.9053125 28.1678125 42 27 C42.28875 27.639375 42.5775 28.27875 42.875 28.9375 C43.82823451 31.15206079 43.82823451 31.15206079 46 32 C46 30.35 46 28.7 46 27 C46.66 27 47.32 27 48 27 C47.67 28.98 47.34 30.96 47 33 C47.99 33.495 47.99 33.495 49 34 C48.34 35.98 47.68 37.96 47 40 C47.99 40.495 47.99 40.495 49 41 C48.67 42.98 48.34 44.96 48 47 C48.99 46.67 49.98 46.34 51 46 C50.521575 51.02346252 49.22014577 54.10192881 46 58 C36.27176812 65.22533727 24.58955252 65.00044892 13 64 C6.58322404 62.60340759 1.56672859 59.6808968 -3 55 C-4.375 52.1875 -4.375 52.1875 -5 50 C-4.67 50 -4.34 50 -4 50 C-3.86312286 48.46089264 -3.76715995 46.91812705 -3.6875 45.375 C-3.62949219 44.51648438 -3.57148437 43.65796875 -3.51171875 42.7734375 C-3.77299949 39.74996585 -3.77299949 39.74996585 -6.5 37.46875 C-10.63283081 32.92006914 -9.52415317 26.89499114 -9.3125 21.125 C-9.27866211 19.37703125 -9.27866211 19.37703125 -9.24414062 17.59375 C-9.18541297 14.72784055 -9.10332875 11.86459078 -9 9 C-8.67 9 -8.34 9 -8 9 C-7.67 11.31 -7.34 13.62 -7 16 C-6.34 16 -5.68 16 -5 16 C-5.33 13.36 -5.66 10.72 -6 8 C-5.34 8 -4.68 8 -4 8 C-4 6.35 -4 4.7 -4 3 C-2.68 3 -1.36 3 0 3 C0 2.01 0 1.02 0 0 Z " fill="#154C98" transform="translate(90,79)"/>
<path d="M0 0 C3.15064811 1.66838117 5.26697273 4.00041736 7.375 6.875 C8.63109266 11.14571505 8.60881792 14.7243815 6.6875 18.75 C4.24550447 22.00599404 2.91585593 23.69471469 -1 25 C-5.79566077 25.39308695 -8.06907584 25.48270142 -12.375 23.25 C-15.51097838 20.56201853 -16.74075998 18.67823803 -17.37109375 14.59765625 C-17.55137138 7.7152926 -17.55137138 7.7152926 -14.6875 4 C-9.53568643 0.16609223 -6.37178885 -1.07646262 0 0 Z " fill="#05B806" transform="translate(125,52)"/>
<path d="M0 0 C3.96132683 3.96132683 3.28717262 8.98834171 3.375 14.25 C3.41238281 15.08402344 3.44976562 15.91804688 3.48828125 16.77734375 C3.57815054 23.13809211 2.13565227 26.17289798 -2 31 C-3.32 29.35 -4.64 27.7 -6 26 C-5.855625 27.27875 -5.71125 28.5575 -5.5625 29.875 C-5.48128906 30.59429687 -5.40007812 31.31359375 -5.31640625 32.0546875 C-5.08707039 34.07404316 -5.08707039 34.07404316 -4 36 C-3.01 36 -2.02 36 -1 36 C1.16343011 33.96731398 1.16343011 33.96731398 3 31 C3.37704918 35.52459016 3.37704918 35.52459016 1.5625 37.8125 C-0.76265808 41.06772131 -0.67024284 44.04291408 -1 48 C-0.34 48.33 0.32 48.66 1 49 C1 49.66 1 50.32 1 51 C-1 52.625 -1 52.625 -3 54 C-3.66 52.68 -4.32 51.36 -5 50 C-4.67 50 -4.34 50 -4 50 C-3.86312286 48.46089264 -3.76715995 46.91812705 -3.6875 45.375 C-3.62949219 44.51648438 -3.57148437 43.65796875 -3.51171875 42.7734375 C-3.77299949 39.74996585 -3.77299949 39.74996585 -6.5 37.46875 C-10.63283081 32.92006914 -9.52415317 26.89499114 -9.3125 21.125 C-9.27866211 19.37703125 -9.27866211 19.37703125 -9.24414062 17.59375 C-9.18541297 14.72784055 -9.10332875 11.86459078 -9 9 C-8.67 9 -8.34 9 -8 9 C-7.67 11.31 -7.34 13.62 -7 16 C-6.34 16 -5.68 16 -5 16 C-5.33 13.36 -5.66 10.72 -6 8 C-5.34 8 -4.68 8 -4 8 C-4 6.35 -4 4.7 -4 3 C-2.68 3 -1.36 3 0 3 C0 2.01 0 1.02 0 0 Z " fill="#265396" transform="translate(90,79)"/>
<path d="M0 0 C0.99 0.33 1.98 0.66 3 1 C3 1.66 3 2.32 3 3 C3.66 3 4.32 3 5 3 C5 2.34 5 1.68 5 1 C5.66 1 6.32 1 7 1 C7.22354607 2.89409978 7.42819951 4.7904348 7.625 6.6875 C7.74101563 7.74324219 7.85703125 8.79898438 7.9765625 9.88671875 C8.0010326 13.13716346 7.40852563 15.10230796 6 18 C4.35 17.67 2.7 17.34 1 17 C0.25983299 11.29014022 -0.10469338 5.75813575 0 0 Z " fill="#8199BF" transform="translate(84,87)"/>
<path d="M0 0 C0.33 0 0.66 0 1 0 C1.08703823 3.43734063 1.14040272 6.87439837 1.1875 10.3125 C1.22520508 11.77719727 1.22520508 11.77719727 1.26367188 13.27148438 C1.27817383 14.67817383 1.27817383 14.67817383 1.29296875 16.11328125 C1.31653442 17.40939331 1.31653442 17.40939331 1.34057617 18.73168945 C0.93240678 21.45018536 0.10407096 22.30363829 -2 24 C-2.66 23.67 -3.32 23.34 -4 23 C-3.814375 22.113125 -3.62875 21.22625 -3.4375 20.3125 C-3.01640684 17.12422321 -3.31376037 15.08807835 -4 12 C-3.67 11.34 -3.34 10.68 -3 10 C-3.66 10 -4.32 10 -5 10 C-5 11.65 -5 13.3 -5 15 C-5.99 14.67 -6.98 14.34 -8 14 C-7.67 11.36 -7.34 8.72 -7 6 C-5.02 5.67 -3.04 5.34 -1 5 C-0.67 3.35 -0.34 1.7 0 0 Z " fill="#46699D" transform="translate(141,96)"/>
<path d="M0 0 C0.33 0 0.66 0 1 0 C1.37704918 4.52459016 1.37704918 4.52459016 -0.4375 6.8125 C-2.76265808 10.06772131 -2.67024284 13.04291408 -3 17 C-2.34 17.33 -1.68 17.66 -1 18 C-1 18.66 -1 19.32 -1 20 C-3 21.625 -3 21.625 -5 23 C-5.66 21.68 -6.32 20.36 -7 19 C-6.67 19 -6.34 19 -6 19 C-5.46073846 10.99061119 -5.46073846 10.99061119 -9 4 C-8.34 3.67 -7.68 3.34 -7 3 C-6.67 3.66 -6.34 4.32 -6 5 C-5.01 5 -4.02 5 -3 5 C-0.7763932 3.0745356 -0.7763932 3.0745356 0 0 Z " fill="#335A97" transform="translate(92,110)"/>
<path d="M0 0 C0.33 0 0.66 0 1 0 C1.33 2.31 1.66 4.62 2 7 C2.33 7 2.66 7 3 7 C3.33730842 8.43657245 3.66969591 9.87430093 4 11.3125 C4.185625 12.11300781 4.37125 12.91351563 4.5625 13.73828125 C5 16 5 16 5 19 C4.34 18.34 3.68 17.68 3 17 C3 19.97 3 22.94 3 26 C2.01 25.67 1.02 25.34 0 25 C0 16.75 0 8.5 0 0 Z " fill="#5174A8" transform="translate(81,88)"/>
<path d="M0 0 C0.33 0.66 0.66 1.32 1 2 C0.67 2.99 0.34 3.98 0 5 C0.66 5 1.32 5 2 5 C1.34 6.65 0.68 8.3 0 10 C-0.66 10 -1.32 10 -2 10 C-1.67 8.35 -1.34 6.7 -1 5 C-1.66 5 -2.32 5 -3 5 C-3 6.65 -3 8.3 -3 10 C-3.99 9.67 -4.98 9.34 -6 9 C-5.67 6.36 -5.34 3.72 -5 1 C-3.35 0.67 -1.7 0.34 0 0 Z " fill="#B3C1D7" transform="translate(139,101)"/>
<path d="M0 0 C0 0.66 0 1.32 0 2 C-2.88265149 2.96088383 -4.67662271 3.11670941 -7.66796875 3.09765625 C-8.56064453 3.09443359 -9.45332031 3.09121094 -10.37304688 3.08789062 C-11.76620117 3.07532227 -11.76620117 3.07532227 -13.1875 3.0625 C-14.12787109 3.05798828 -15.06824219 3.05347656 -16.03710938 3.04882812 C-18.35813712 3.03704626 -20.67903644 3.02059558 -23 3 C-23 2.67 -23 2.34 -23 2 C-21.86820312 1.86722656 -20.73640625 1.73445312 -19.5703125 1.59765625 C-18.08851821 1.4194658 -16.60674864 1.24106971 -15.125 1.0625 C-14.00544922 0.93198242 -14.00544922 0.93198242 -12.86328125 0.79882812 C-2.13585069 -0.50585938 -2.13585069 -0.50585938 0 0 Z " fill="#4C71A4" transform="translate(91,140)"/>
<path d="M0 0 C2 2 2 2 2.3125 4.9375 C2 8 2 8 0.625 9.875 C-1 11 -1 11 -3 11 C-4.35439668 8.29120665 -4.06501451 5.99066732 -4 3 C-2.68 3 -1.36 3 0 3 C0 2.01 0 1.02 0 0 Z " fill="#5577AB" transform="translate(90,79)"/>
<path d="M0 0 C4.22797927 2.99481865 4.22797927 2.99481865 6 5 C6.375 8.3125 6.375 8.3125 6 11 C5.01 11.33 4.02 11.66 3 12 C0.58314288 7.77050005 -0.34833144 4.87664009 0 0 Z " fill="#DDE1EB" transform="translate(83,104)"/>
<path d="M0 0 C0.66 0.33 1.32 0.66 2 1 C2 2.65 2 4.3 2 6 C2.66 6.33 3.32 6.66 4 7 C4 7.66 4 8.32 4 9 C2 10.625 2 10.625 0 12 C-0.66 10.68 -1.32 9.36 -2 8 C-1.67 8 -1.34 8 -1 8 C-0.67 5.36 -0.34 2.72 0 0 Z " fill="#486B9F" transform="translate(87,121)"/>
<path d="M0 0 C0.33 0 0.66 0 1 0 C0.67 2.64 0.34 5.28 0 8 C-0.99 8 -1.98 8 -3 8 C-2.25 2.25 -2.25 2.25 0 0 Z " fill="#E2E6EE" transform="translate(91,95)"/>
<path d="M0 0 C1.485 0.99 1.485 0.99 3 2 C3.40843923 4.71203652 3.13336867 7.2437142 3 10 C2.34 9.67 1.68 9.34 1 9 C0.5859375 6.93359375 0.5859375 6.93359375 0.375 4.4375 C0.30023438 3.61121094 0.22546875 2.78492187 0.1484375 1.93359375 C0.09945312 1.29550781 0.05046875 0.65742187 0 0 Z " fill="#F0F2F5" transform="translate(84,95)"/>
<path d="M0 0 C1.32 0.33 2.64 0.66 4 1 C4 1.99 4 2.98 4 4 C3.34 4 2.68 4 2 4 C1.67 4.66 1.34 5.32 1 6 C1 5.34 1 4.68 1 4 C0.34 4 -0.32 4 -1 4 C-1.33 4.66 -1.66 5.32 -2 6 C-2 5.01 -2 4.02 -2 3 C-1.34 3 -0.68 3 0 3 C0 2.01 0 1.02 0 0 Z " fill="#5776A9" transform="translate(135,98)"/>
<path d="M0 0 C0.99 0.33 1.98 0.66 3 1 C3 2.98 3 4.96 3 7 C3.66 7.33 4.32 7.66 5 8 C4.01 8.99 3.02 9.98 2 11 C1.34 9.68 0.68 8.36 0 7 C0.66 7 1.32 7 2 7 C1.34 4.69 0.68 2.38 0 0 Z " fill="#1E4B8E" transform="translate(134,112)"/>
<path d="M0 0 C0.66 0.33 1.32 0.66 2 1 C-0.64 3.64 -3.28 6.28 -6 9 C-6 6 -6 6 -3.5625 3.375 C-2.716875 2.59125 -1.87125 1.8075 -1 1 C-0.67 0.67 -0.34 0.34 0 0 Z " fill="#22B422" transform="translate(59,30)"/>
<path d="M0 0 C0.66 0 1.32 0 2 0 C1.67 1.98 1.34 3.96 1 6 C0.01 6 -0.98 6 -2 6 C-1.125 1.125 -1.125 1.125 0 0 Z " fill="#EAEDF2" transform="translate(139,112)"/>
<path d="M0 0 C0 3 0 3 -1.3125 4.38671875 C-2.875 5.59114583 -4.4375 6.79557292 -6 8 C-4.73058503 4.08597051 -3.48832306 2.20927127 0 0 Z " fill="#25549A" transform="translate(108,86)"/>
<path d="M0 0 C0.66 0.33 1.32 0.66 2 1 C-0.31 3.31 -2.62 5.62 -5 8 C-5 5 -5 5 -2.5 2.3125 C-1.675 1.549375 -0.85 0.78625 0 0 Z " fill="#28B628" transform="translate(114,53)"/>
</svg>
